<svg width="24" height="24" viewBox="0 0 24 24" fill="none" xmlns="http://www.w3.org/2000/svg">
<path d="M23.3412 20.1589L17.8348 14.6523C17.0147 15.9295 15.9293 17.0145 14.6531 17.835L20.1594 23.3408C21.0388 24.2197 22.4642 24.2197 23.3412 23.3408C24.2197 22.463 24.2197 21.0391 23.3412 20.1589Z" fill="#a0a0a0"/>
<path d="M17.9998 9.00023C17.9998 4.0302 13.9701 0 8.99989 0C4.03044 0 0 4.0302 0 9.00023C0 13.9699 4.03044 18.0001 8.99989 18.0001C13.9701 18.0001 17.9998 13.9699 17.9998 9.00023ZM8.99989 15.7497C5.27807 15.7497 2.25027 12.7218 2.25027 9.00023C2.25027 5.27787 5.27767 2.24956 8.99989 2.24956C12.7225 2.24956 15.7503 5.27748 15.7503 9.00023C15.7503 12.7214 12.7225 15.7497 8.99989 15.7497Z" fill="#a0a0a0"/>
</svg>
